<svg width="141" height="141" viewBox="0 0 141 141" fill="none" xmlns="http://www.w3.org/2000/svg">
<path d="M135 70C135 105.347 106.347 134 71 134C35.6533 134 7 105.347 7 70C7 34.6533 35.6533 6 71 6C106.347 6 135 34.6533 135 70Z" fill="#C60917"/>
<g filter="url(#filter0_i_2_4)">
<path d="M27.4069 84.2579C26.7704 83.7758 26.8617 82.9762 26.8617 82.9762L30.388 41.026C30.388 41.026 30.4431 40.564 30.6485 40.3277C30.7781 40.18 30.942 39.9651 31.2508 39.8389C34.7973 38.3886 54.0747 27.9459 63.7856 37.6688C65.395 39.5334 67.142 42.2856 67.142 44.3831V79.8876C67.142 79.8876 67.1837 80.6409 66.5022 81.0968C66.3417 81.2043 65.6696 81.5104 64.8773 81.1143C49.936 73.6386 33.2463 82.1523 29.0358 84.3848C28.1911 84.8327 27.5324 84.3539 27.4069 84.2579ZM111.963 84.3848C107.753 82.1523 91.063 73.6386 76.1217 81.1143C75.3294 81.5104 74.6573 81.2043 74.4969 81.0968C73.816 80.6409 73.8577 79.8876 73.8577 79.8876V44.3831C73.8577 42.2856 75.6047 39.5334 77.2141 37.6688C86.925 27.9459 106.08 38.3879 109.626 39.8389C109.935 39.9651 110.099 40.18 110.228 40.3277C110.434 40.564 110.489 41.026 110.489 41.026L114.138 82.9762C114.138 82.9762 114.229 83.7758 113.593 84.2579C113.467 84.3539 112.809 84.8327 111.963 84.3848ZM79.6628 102.705C79.8992 102.648 80.3101 102.408 80.4544 102.185C80.6129 101.941 80.7082 101.771 80.7385 101.455C81.0708 95.1572 91.6458 89.2889 111.944 101.254C112.465 101.551 113.063 101.52 113.573 101.15C114.152 100.729 114.143 100.017 114.143 100.017V96.296C114.143 96.296 114.145 95.783 113.96 95.501C113.822 95.2915 113.64 95.0693 113.338 94.9249C99.7392 86.099 82.548 82.1866 73.8221 93.856C73.7005 94.14 73.5851 94.2676 73.3333 94.4636C72.9532 94.7591 72.49 94.7403 72.49 94.7403H68.5587C68.5587 94.7403 68.0955 94.7591 67.7154 94.4636C67.4636 94.2676 67.3482 94.14 67.2266 93.856C58.5007 82.1866 41.3095 85.9143 27.7104 94.7403C27.4082 94.8846 27.2263 95.1069 27.0886 95.3163C26.904 95.5983 26.906 96.1113 26.906 96.1113V99.8324C26.906 99.8324 26.8966 100.545 27.476 100.966C27.9857 101.336 28.5839 101.366 29.1043 101.07C49.4029 89.1043 59.9779 95.1572 60.3102 101.455C60.3405 101.771 60.4358 101.941 60.5943 102.185C60.7386 102.408 61.1495 102.648 61.3859 102.705C66.2329 103.909 73.2608 104.384 79.6628 102.705Z" fill="white"/>
</g>
<defs>
<filter id="filter0_i_2_4" x="26.8571" y="33.5714" width="87.2856" height="70.2221" filterUnits="userSpaceOnUse" color-interpolation-filters="sRGB">
<feFlood flood-opacity="0" result="BackgroundImageFix"/>
<feBlend mode="normal" in="SourceGraphic" in2="BackgroundImageFix" result="shape"/>
<feColorMatrix in="SourceAlpha" type="matrix" values="0 0 0 0 0 0 0 0 0 0 0 0 0 0 0 0 0 0 127 0" result="hardAlpha"/>
<feOffset/>
<feGaussianBlur stdDeviation="2"/>
<feComposite in2="hardAlpha" operator="arithmetic" k2="-1" k3="1"/>
<feColorMatrix type="matrix" values="0 0 0 0 0 0 0 0 0 0 0 0 0 0 0 0 0 0 0.25 0"/>
<feBlend mode="normal" in2="shape" result="effect1_innerShadow_2_4"/>
</filter>
</defs>
</svg>
